<svg xmlns="http://www.w3.org/2000/svg" viewBox="0 0 1600 1060" width="1600" height="1060" xmlns:c2pa="http://c2pa.org/manifest"><metadata><c2pa:manifest>AAAWgmp1bWIAAAAeanVtZGMycGEAEQAQgAAAqgA4m3EDYzJwYQAAABZcanVtYgAAAEdqdW1kYzJtYQARABCAAACqADibcQN1cm46YzJwYToxYmE4MjFlZi1mMTAxLTQxNzMtOWRjYi0yMTUyMGMwNGVhYTMAAAADl2p1bWIAAAApanVtZGMyYXMAEQAQgAAAqgA4m3EDYzJwYS5hc3NlcnRpb25zAAAAALxqdW1iAAAARGp1bWRjYm9yABEAEIAAAKoAOJtxE2MycGEuaW5ncmVkaWVudC52MwAAAAAYYzJzaETfefgwdZJV/i4oaiB0tegAAABwY2JvcqNpZGM6Zm9ybWF0bWltYWdlL3N2Zyt4bWxqaW5zdGFuY2VJRHgseG1wOmlpZDowMjVmOGU5MC1lMzRmLTQ5ODYtOTAxNy03MGViNDZmZGIyZGFscmVsYXRpb25zaGlwaHBhcmVudE9mAAAB4mp1bWIAAABBanVtZGNib3IAEQAQgAAAqgA4m3ETYzJwYS5hY3Rpb25zLnYyAAAAABhjMnNomawKAe+Y8PlztnSV68sFjwAAAZljYm9yomdhY3Rpb25zgqJmYWN0aW9ua2MycGEub3BlbmVkanBhcmFtZXRlcnOha2luZ3JlZGllbnRzgaJjdXJseC1zZWxmI2p1bWJmPWMycGEuYXNzZXJ0aW9ucy9jMnBhLmluZ3JlZGllbnQudjNkaGFzaFggG4OvXWTLo5Jb727QiknN8re7ufYYouniRKhIC924LA+kZmFjdGlvbngdY29tLmFudGhyb3BpYy5jbGF1ZGUucHJvdmlkZWRqcGFyYW1ldGVyc6F4H2NvbS5hbnRocm9waWMub3JpZ2luLWNvbmZpZGVuY2VndW5rbm93bmtkZXNjcmlwdGlvbnhmQ2xhdWRlIHByb3ZpZGVkIHRoaXMgZmlsZSBhdCB0aGUgcmVxdWVzdCBvZiBhIHVzZXIgYW5kIG1heSBoYXZlIGNyZWF0ZWQgb3IgbW9kaWZpZWQgdGhlIGZpbGUgY29udGVudHMubXNvZnR3YXJlQWdlbnShZG5hbWVmQ2xhdWRlcmFsbEFjdGlvbnNJbmNsdWRlZPUAAADIanVtYgAAAEBqdW1kY2JvcgARABCAAACqADibcRNjMnBhLmhhc2guZGF0YQAAAAAYYzJzaEausYGlFcmWqrhnIPhhM+gAAACAY2JvcqVjYWxnZnNoYTI1NmNwYWRNAAAAAAAAAAAAAAAAAGRoYXNoWCA+3n6sv8VaDj/tgelUP3EYsGswFkeiA5ibEWqtIDGOI2RuYW1lbmp1bWJmIG1hbmlmZXN0amV4Y2x1c2lvbnOBomVzdGFydBiaZmxlbmd0aBkeBAAAAj5qdW1iAAAAJ2p1bWRjMmNsABEAEIAAAKoAOJtxA2MycGEuY2xhaW0udjIAAAACD2Nib3KlY2FsZ2ZzaGEyNTZpc2lnbmF0dXJleE1zZWxmI2p1bWJmPS9jMnBhL3VybjpjMnBhOjFiYTgyMWVmLWYxMDEtNDE3My05ZGNiLTIxNTIwYzA0ZWFhMy9jMnBhLnNpZ25hdHVyZWppbnN0YW5jZUlEeCx4bXA6aWlkOmMwMGE2M2I1LWRjMjYtNGQ3ZC04MzYxLTE3MmQ2MDUzNzQ1YnJjcmVhdGVkX2Fzc2VydGlvbnODomN1cmx4LXNlbGYjanVtYmY9YzJwYS5hc3NlcnRpb25zL2MycGEuaW5ncmVkaWVudC52M2RoYXNoWCAbg69dZMujklvvbtCKSc3yt7u59hii6eJEqEgL3bgsD6JjdXJseCpzZWxmI2p1bWJmPWMycGEuYXNzZXJ0aW9ucy9jMnBhLmFjdGlvbnMudjJkaGFzaFggY0MYJXrAkI9kfuXv9+lXmGDp+XxE920i5iVBLFgauNCiY3VybHgpc2VsZiNqdW1iZj1jMnBhLmFzc2VydGlvbnMvYzJwYS5oYXNoLmRhdGFkaGFzaFggd1FJDeqlO2mVjhtyMpaM2SMPSL6Ma57hHvyDWVtigE90Y2xhaW1fZ2VuZXJhdG9yX2luZm+jZG5hbWVvQW50aHJvcGljIEZpbGVzZ3ZlcnNpb25lMS4wLjBrc3BlY1ZlcnNpb25lMi40LjAAABA4anVtYgAAAChqdW1kYzJjcwARABCAAACqADibcQNjMnBhLnNpZ25hdHVyZQAAABAIY2JvctKEWQISogEmGCFZAgowggIGMIIBjaADAgECAhRA5aAK7sI50L64g/oGQgU9Z1UTADAKBggqhkjOPQQDAzBJMRcwFQYDVQQKEw5BbnRocm9waWMsIFBCQzEuMCwGA1UEAxMlQW50aHJvcGljIENvbnRlbnQgQ3JlZGVudGlhbHMgUm9vdCBDQTAeFw0yNjA4MDcxODQzNTZaFw0yODA4MDYxOTQzNTZaMEQxFzAVBgNVBAoTDkFudGhyb3BpYywgUEJDMSkwJwYDVQQDEyBBbnRocm9waWMgQ2xhdWRlIENvbnRlbnQgU2lnbmluZzBZMBMGByqGSM49AgEGCCqGSM49AwEHA0IABJh6CmvLUBgFFNU0vUKlOVtE6djd17L5SuwX0LemFisBM3dkd/3cyjxFA3Qo5S46fX0/ihY0VZ7mfb9KF703t5OjWDBWMA4GA1UdDwEB/wQEAwIHgDAVBgNVHSUEDjAMBgorBgEEAYPoXgIBMAwGA1UdEwEB/wQCMAAwHwYDVR0jBBgwFoAUzlHiBIFOZFsj+OPEz5o+nMHXXMIwCgYIKoZIzj0EAwMDZwAwZAIwMXMdFJ4BetLLVY7ORuE9noqbbAZOZn/aArXyTwFAZfKrPzxF2vPoJNf1+UCdg1XGAjBwX1zd9WGqYkqmL5SFqw1QySjr1zJfpJM9+1rdDwSPLMOPOjKuiXjoU/pUUeG9RwmhY3BhZFkNngAAAAAAAAAAAAAAAAAAAAAAAAAAAAAAAAAAAAAAAAAAAAAAAAAAAAAAAAAAAAAAAAAAAAAAAAAAAAAAAAAAAAAAAAAAAAAAAAAAAAAAAAAAAAAAAAAAAAAAAAAAAAAAAAAAAAAAAAAAAAAAAAAAAAAAAAAAAAAAAAAAAAAAAAAAAAAAAAAAAAAAAAAAAAAAAAAAAAAAAAAAAAAAAAAAAAAAAAAAAAAAAAAAAAAAAAAAAAAAAAAAAAAAAAAAAAAAAAAAAAAAAAAAAAAAAAAAAAAAAAAAAAAAAAAAAAAAAAAAAAAAAAAAAAAAAAAAAAAAAAAAAAAAAAAAAAAAAAAAAAAAAAAAAAAAAAAAAAAAAAAAAAAAAAAAAAAAAAAAAAAAAAAAAAAAAAAAAAAAAAAAAAAAAAAAAAAAAAAAAAAAAAAAAAAAAAAAAAAAAAAAAAAAAAAAAAAAAAAAAAAAAAAAAAAAAAAAAAAAAAAAAAAAAAAAAAAAAAAAAAAAAAAAAAAAAAAAAAAAAAAAAAAAAAAAAAAAAAAAAAAAAAAAAAAAAAAAAAAAAAAAAAAAAAAAAAAAAAAAAAAAAAAAAAAAAAAAAAAAAAAAAAAAAAAAAAAAAAAAAAAAAAAAAAAAAAAAAAAAAAAAAAAAAAAAAAAAAAAAAAAAAAAAAAAAAAAAAAAAAAAAAAAAAAAAAAAAAAAAAAAAAAAAAAAAAAAAAAAAAAAAAAAAAAAAAAAAAAAAAAAAAAAAAAAAAAAAAAAAAAAAAAAAAAAAAAAAAAAAAAAAAAAAAAAAAAAAAAAAAAAAAAAAAAAAAAAAAAAAAAAAAAAAAAAAAAAAAAAAAAAAAAAAAAAAAAAAAAAAAAAAAAAAAAAAAAAAAAAAAAAAAAAAAAAAAAAAAAAAAAAAAAAAAAAAAAAAAAAAAAAAAAAAAAAAAAAAAAAAAAAAAAAAAAAAAAAAAAAAAAAAAAAAAAAAAAAAAAAAAAAAAAAAAAAAAAAAAAAAAAAAAAAAAAAAAAAAAAAAAAAAAAAAAAAAAAAAAAAAAAAAAAAAAAAAAAAAAAAAAAAAAAAAAAAAAAAAAAAAAAAAAAAAAAAAAAAAAAAAAAAAAAAAAAAAAAAAAAAAAAAAAAAAAAAAAAAAAAAAAAAAAAAAAAAAAAAAAAAAAAAAAAAAAAAAAAAAAAAAAAAAAAAAAAAAAAAAAAAAAAAAAAAAAAAAAAAAAAAAAAAAAAAAAAAAAAAAAAAAAAAAAAAAAAAAAAAAAAAAAAAAAAAAAAAAAAAAAAAAAAAAAAAAAAAAAAAAAAAAAAAAAAAAAAAAAAAAAAAAAAAAAAAAAAAAAAAAAAAAAAAAAAAAAAAAAAAAAAAAAAAAAAAAAAAAAAAAAAAAAAAAAAAAAAAAAAAAAAAAAAAAAAAAAAAAAAAAAAAAAAAAAAAAAAAAAAAAAAAAAAAAAAAAAAAAAAAAAAAAAAAAAAAAAAAAAAAAAAAAAAAAAAAAAAAAAAAAAAAAAAAAAAAAAAAAAAAAAAAAAAAAAAAAAAAAAAAAAAAAAAAAAAAAAAAAAAAAAAAAAAAAAAAAAAAAAAAAAAAAAAAAAAAAAAAAAAAAAAAAAAAAAAAAAAAAAAAAAAAAAAAAAAAAAAAAAAAAAAAAAAAAAAAAAAAAAAAAAAAAAAAAAAAAAAAAAAAAAAAAAAAAAAAAAAAAAAAAAAAAAAAAAAAAAAAAAAAAAAAAAAAAAAAAAAAAAAAAAAAAAAAAAAAAAAAAAAAAAAAAAAAAAAAAAAAAAAAAAAAAAAAAAAAAAAAAAAAAAAAAAAAAAAAAAAAAAAAAAAAAAAAAAAAAAAAAAAAAAAAAAAAAAAAAAAAAAAAAAAAAAAAAAAAAAAAAAAAAAAAAAAAAAAAAAAAAAAAAAAAAAAAAAAAAAAAAAAAAAAAAAAAAAAAAAAAAAAAAAAAAAAAAAAAAAAAAAAAAAAAAAAAAAAAAAAAAAAAAAAAAAAAAAAAAAAAAAAAAAAAAAAAAAAAAAAAAAAAAAAAAAAAAAAAAAAAAAAAAAAAAAAAAAAAAAAAAAAAAAAAAAAAAAAAAAAAAAAAAAAAAAAAAAAAAAAAAAAAAAAAAAAAAAAAAAAAAAAAAAAAAAAAAAAAAAAAAAAAAAAAAAAAAAAAAAAAAAAAAAAAAAAAAAAAAAAAAAAAAAAAAAAAAAAAAAAAAAAAAAAAAAAAAAAAAAAAAAAAAAAAAAAAAAAAAAAAAAAAAAAAAAAAAAAAAAAAAAAAAAAAAAAAAAAAAAAAAAAAAAAAAAAAAAAAAAAAAAAAAAAAAAAAAAAAAAAAAAAAAAAAAAAAAAAAAAAAAAAAAAAAAAAAAAAAAAAAAAAAAAAAAAAAAAAAAAAAAAAAAAAAAAAAAAAAAAAAAAAAAAAAAAAAAAAAAAAAAAAAAAAAAAAAAAAAAAAAAAAAAAAAAAAAAAAAAAAAAAAAAAAAAAAAAAAAAAAAAAAAAAAAAAAAAAAAAAAAAAAAAAAAAAAAAAAAAAAAAAAAAAAAAAAAAAAAAAAAAAAAAAAAAAAAAAAAAAAAAAAAAAAAAAAAAAAAAAAAAAAAAAAAAAAAAAAAAAAAAAAAAAAAAAAAAAAAAAAAAAAAAAAAAAAAAAAAAAAAAAAAAAAAAAAAAAAAAAAAAAAAAAAAAAAAAAAAAAAAAAAAAAAAAAAAAAAAAAAAAAAAAAAAAAAAAAAAAAAAAAAAAAAAAAAAAAAAAAAAAAAAAAAAAAAAAAAAAAAAAAAAAAAAAAAAAAAAAAAAAAAAAAAAAAAAAAAAAAAAAAAAAAAAAAAAAAAAAAAAAAAAAAAAAAAAAAAAAAAAAAAAAAAAAAAAAAAAAAAAAAAAAAAAAAAAAAAAAAAAAAAAAAAAAAAAAAAAAAAAAAAAAAAAAAAAAAAAAAAAAAAAAAAAAAAAAAAAAAAAAAAAAAAAAAAAAAAAAAAAAAAAAAAAAAAAAAAAAAAAAAAAAAAAAAAAAAAAAAAAAAAAAAAAAAAAAAAAAAAAAAAAAAAAAAAAAAAAAAAAAAAAAAAAAAAAAAAAAAAAAAAAAAAAAAAAAAAAAAAAAAAAAAAAAAAAAAAAAAAAAAAAAAAAAAAAAAAAAAAAAAAAAAAAAAAAAAAAAAAAAAAAAAAAAAAAAAAAAAAAAAAAAAAAAAAAAAAAAAAAAAAAAAAAAAAAAAAAAAAAAAAAAAAAAAAAAAAAAAAAAAAAAAAAAAAAAAAAAAAAAAAAAAAAAAAAAAAAAAAAAAAAAAAAAAAAAAAAAAAAAAAAAAAAAAAAAAAAAAAAAAAAAAAAAAAAAAAAAAAAAAAAAAAAAAAAAAAAAAAAAAAAAAAAAAAAAAAAAAAAAAAAAAAAAAAAAAAAAAAAAAAAAAAAAAAAAAAAAAAAAAAAAAAAAAAAAAAAAAAAAAAAAAAAAAAAAAAAAAAAAAAAAAAAAAAAAAAAAAAAAAAAAAAAAAAAAAAAAAAAAAAAAAAAAAAAAAAAAAAAAAAAAAAAAAAAAAAAAAAAAAAAAAAAAAAAAAAAAAAAAAAAAAAAAAAAAAAAAAAAAAAAAAAAAAAAAAAAAAAAAAAAAAAAAAAAAAAAAAAAAAAAAAAAAAAAAAAAAAAAAAAAAAAAAAAAAAAAAAAAAAAAAAAAAAAAAAAAAAAAAAAAAAAAAAAAAAAAAAAAAAAAAAAAAAAAAAAAAAAAAAAAAAAAAAAAAAAAAAAAAAAAAAAAAAAAAAAAAAAAAAAAAAAAAAAAAAAAAAAAAAAAAAAAAAAAAAAAAAAAAAAAAAAAAAAAAAAAAAAAAAAAAAAAAAAAAAAAAAAAAAAAAAAAAAAAAAAAAAAAAAAAAAAAAAAAAAAAAAAAAAAAAAAAAAAAAAAAAAAAAAAAAAAAAAAAAAAAAAAAAAAAAAAAAAAAAAAAAAAAAAAAAAAAAAAAAAAAAAAAAAAAAAAAAAAAAAAAAAAAAAAAAAAAAAAAAAAAAAAAAAAAAAAAAAAAAAAAAAAAAAAAAAAAAAAAAAAAAAAAAAAAAAAAAAAAAAAAAAAAAAAAAAAAAAAAAAAAAAAAAAAAAAAAAAAAAAAAAAAAAAAAAAAAAAAAAAAAAAAAAAAAAAAAAAAAAAAAAAAAAAAAAAAAAAAAAAAAAAAAAAAAAAAAAAAAAAAAAAAAAAAAAAAAAAAAAAAAAAAAAAAAAAAAAAAAAAAAAAAAAAAAAAAAAAAAAAAAAAAAAAAAAAAAAAAAAAAAAAAAAAAAAAAAAAAAAAAAAAAAAAAAAAAAAAAAAAAAAAAAAAAAAAAAAAAAAAAAAAAAAAAAAAAAAAAAAAAAAAAAAAAAAAAAAAAAAAAAAAAAAAAAAAAAAAAAAAAAAAAAAAAAAAAAAAAAAAAAAAAAAAAAAAAAAAAAAAAAAAAAAAAAAAAAAAAAAAAAAAAAAAAAAAAAAAAAAAAAAAAAAAAAAAAAAAAAAAAAAAAAAAAAAAAAAAAAAAAAAAAAAAAAAAAAAAAAAAAAAAAAAAAAAAAAAAAAAAAAAAAAAAAAAAAAAAAAAAAAAAAAAAAAAAAAAAAAAAAAAAAAAAAAAAAAAAAAAAAAAAAAAAAAAAAAAAAAAAAAAAAAAAAAAAAAAAAAAAAAAAAAAAAAAAAAAAAAAAAAAAAAAAAAAAAAAAAAAAAAAAPZYQDR+9d7VONrBY/1ysj16t7ROXQDZtmvQBEU/HicvSgkQ8hkfe6FDbL8uLGs4PbMuKBZDilPnZV1ylbe3qtzYaag=</c2pa:manifest></metadata>
<defs><linearGradient id="bg" x1="0" y1="0" x2="1" y2="1"><stop offset="0" stop-color="#1A4D53"/><stop offset="1" stop-color="#0D2F34"/></linearGradient></defs>
<rect width="1600" height="1060" fill="#E8E9E6"/>
<clipPath id="c1"><rect width="1024" height="1024" rx="229"/></clipPath><g transform="translate(80,80) scale(0.4296875)" clip-path="url(#c1)"><rect width="1024" height="1024" fill="url(#bg)"/><path d="M215,790 L215,560 L271,534.4 L271,678 L299,678 L299,790 Z M313,790 L313,678 L327,678 L327,508.8 L383,483.2 L383,678 L397,678 L397,790 Z M411,790 L411,678 L439,678 L439,457.6 L495,432 L495,790 Z" fill="#F4EFE3"/><path d="M509,790 L509,240 C679,359 809,430 809,530 C809,558 803,582 791,605 L757,587.5 C763,575 767,555 767,530 C767,460 679,426 565,349.2 L565,790 Z" fill="#F4EFE3"/><circle cx="683.0" cy="702" r="88" fill="#F2A03D"/></g>
<text x="80" y="552" text-anchor="start" font-family="-apple-system, Segoe UI, Roboto, sans-serif" font-size="15" fill="#55605C">Ícone principal (máscara iOS)</text>
<clipPath id="c2"><circle cx="512" cy="512" r="512"/></clipPath><g transform="translate(600,150) scale(0.29296875)" clip-path="url(#c2)"><rect width="1024" height="1024" fill="url(#bg)"/><path d="M215,790 L215,560 L271,534.4 L271,678 L299,678 L299,790 Z M313,790 L313,678 L327,678 L327,508.8 L383,483.2 L383,678 L397,678 L397,790 Z M411,790 L411,678 L439,678 L439,457.6 L495,432 L495,790 Z" fill="#F4EFE3"/><path d="M509,790 L509,240 C679,359 809,430 809,530 C809,558 803,582 791,605 L757,587.5 C763,575 767,555 767,530 C767,460 679,426 565,349.2 L565,790 Z" fill="#F4EFE3"/><circle cx="683.0" cy="702" r="88" fill="#F2A03D"/></g>
<text x="600" y="480" text-anchor="start" font-family="-apple-system, Segoe UI, Roboto, sans-serif" font-size="15" fill="#55605C">Máscara circular (Android)</text>
<text x="980" y="64" text-anchor="start" font-family="-apple-system, Segoe UI, Roboto, sans-serif" font-size="15" fill="#55605C">Tamanhos reais de tela</text>
<clipPath id="c3"><rect width="1024" height="1024" rx="229"/></clipPath><g transform="translate(980,80) scale(0.17578125)" clip-path="url(#c3)"><rect width="1024" height="1024" fill="url(#bg)"/><path d="M215,790 L215,560 L271,534.4 L271,678 L299,678 L299,790 Z M313,790 L313,678 L327,678 L327,508.8 L383,483.2 L383,678 L397,678 L397,790 Z M411,790 L411,678 L439,678 L439,457.6 L495,432 L495,790 Z" fill="#F4EFE3"/><path d="M509,790 L509,240 C679,359 809,430 809,530 C809,558 803,582 791,605 L757,587.5 C763,575 767,555 767,530 C767,460 679,426 565,349.2 L565,790 Z" fill="#F4EFE3"/><circle cx="683.0" cy="702" r="88" fill="#F2A03D"/></g>
<text x="1070.0" y="290" text-anchor="middle" font-family="-apple-system, Segoe UI, Roboto, sans-serif" font-size="15" fill="#55605C">180 px</text>
<clipPath id="c4"><rect width="1024" height="1024" rx="229"/></clipPath><g transform="translate(1190,110) scale(0.1171875)" clip-path="url(#c4)"><rect width="1024" height="1024" fill="url(#bg)"/><path d="M215,790 L215,560 L271,534.4 L271,678 L299,678 L299,790 Z M313,790 L313,678 L327,678 L327,508.8 L383,483.2 L383,678 L397,678 L397,790 Z M411,790 L411,678 L439,678 L439,457.6 L495,432 L495,790 Z" fill="#F4EFE3"/><path d="M509,790 L509,240 C679,359 809,430 809,530 C809,558 803,582 791,605 L757,587.5 C763,575 767,555 767,530 C767,460 679,426 565,349.2 L565,790 Z" fill="#F4EFE3"/><circle cx="683.0" cy="702" r="88" fill="#F2A03D"/></g>
<text x="1250.0" y="290" text-anchor="middle" font-family="-apple-system, Segoe UI, Roboto, sans-serif" font-size="15" fill="#55605C">120 px</text>
<clipPath id="c5"><rect width="1024" height="1024" rx="229"/></clipPath><g transform="translate(1340,140) scale(0.05859375)" clip-path="url(#c5)"><rect width="1024" height="1024" fill="url(#bg)"/><path d="M215,790 L215,560 L271,534.4 L271,678 L299,678 L299,790 Z M313,790 L313,678 L327,678 L327,508.8 L383,483.2 L383,678 L397,678 L397,790 Z M411,790 L411,678 L439,678 L439,457.6 L495,432 L495,790 Z" fill="#F4EFE3"/><path d="M509,790 L509,240 C679,359 809,430 809,530 C809,558 803,582 791,605 L757,587.5 C763,575 767,555 767,530 C767,460 679,426 565,349.2 L565,790 Z" fill="#F4EFE3"/><circle cx="683.0" cy="702" r="88" fill="#F2A03D"/></g>
<text x="1370.0" y="290" text-anchor="middle" font-family="-apple-system, Segoe UI, Roboto, sans-serif" font-size="15" fill="#55605C">60 px</text>
<clipPath id="c6"><rect width="1024" height="1024" rx="229"/></clipPath><g transform="translate(1430,150) scale(0.0390625)" clip-path="url(#c6)"><rect width="1024" height="1024" fill="url(#bg)"/><path d="M215,790 L215,560 L271,534.4 L271,678 L299,678 L299,790 Z M313,790 L313,678 L327,678 L327,508.8 L383,483.2 L383,678 L397,678 L397,790 Z M411,790 L411,678 L439,678 L439,457.6 L495,432 L495,790 Z" fill="#F4EFE3"/><path d="M509,790 L509,240 C679,359 809,430 809,530 C809,558 803,582 791,605 L757,587.5 C763,575 767,555 767,530 C767,460 679,426 565,349.2 L565,790 Z" fill="#F4EFE3"/><circle cx="683.0" cy="702" r="88" fill="#F2A03D"/></g>
<text x="1450.0" y="290" text-anchor="middle" font-family="-apple-system, Segoe UI, Roboto, sans-serif" font-size="15" fill="#55605C">40 px</text>
<clipPath id="c7"><rect width="1024" height="1024" rx="229"/></clipPath><g transform="translate(1500,155) scale(0.0283203125)" clip-path="url(#c7)"><rect width="1024" height="1024" fill="url(#bg)"/><path d="M215,790 L215,560 L271,534.4 L271,678 L299,678 L299,790 Z M313,790 L313,678 L327,678 L327,508.8 L383,483.2 L383,678 L397,678 L397,790 Z M411,790 L411,678 L439,678 L439,457.6 L495,432 L495,790 Z" fill="#F4EFE3"/><path d="M509,790 L509,240 C679,359 809,430 809,530 C809,558 803,582 791,605 L757,587.5 C763,575 767,555 767,530 C767,460 679,426 565,349.2 L565,790 Z" fill="#F4EFE3"/><circle cx="683.0" cy="702" r="88" fill="#F2A03D"/></g>
<text x="1514.5" y="290" text-anchor="middle" font-family="-apple-system, Segoe UI, Roboto, sans-serif" font-size="15" fill="#55605C">29 px</text>
<clipPath id="c8"><rect width="1024" height="1024" rx="229"/></clipPath><g transform="translate(80,640) scale(0.29296875)" clip-path="url(#c8)"><rect width="1024" height="1024" fill="url(#bg)"/><path d="M215,790 L215,560 L271,534.4 L271,678 L299,678 L299,790 Z M313,790 L313,678 L327,678 L327,508.8 L383,483.2 L383,678 L397,678 L397,790 Z M411,790 L411,678 L439,678 L439,457.6 L495,432 L495,790 Z" fill="#F4EFE3"/><path d="M509,790 L509,240 C679,359 809,430 809,530 C809,558 803,582 791,605 L757,587.5 C763,575 767,555 767,530 C767,460 679,426 565,349.2 L565,790 Z" fill="#F4EFE3"/><circle cx="683.0" cy="702" r="88" fill="#F4EFE3"/></g>
<text x="80" y="970" text-anchor="start" font-family="-apple-system, Segoe UI, Roboto, sans-serif" font-size="15" fill="#55605C">Monocromático no escuro</text>
<clipPath id="c9"><rect width="1024" height="1024" rx="229"/></clipPath><g transform="translate(440,640) scale(0.29296875)" clip-path="url(#c9)"><rect width="1024" height="1024" fill="#F4EFE3"/><path d="M215,790 L215,560 L271,534.4 L271,678 L299,678 L299,790 Z M313,790 L313,678 L327,678 L327,508.8 L383,483.2 L383,678 L397,678 L397,790 Z M411,790 L411,678 L439,678 L439,457.6 L495,432 L495,790 Z" fill="#123B40"/><path d="M509,790 L509,240 C679,359 809,430 809,530 C809,558 803,582 791,605 L757,587.5 C763,575 767,555 767,530 C767,460 679,426 565,349.2 L565,790 Z" fill="#123B40"/><circle cx="683.0" cy="702" r="88" fill="#F2A03D"/></g>
<text x="440" y="970" text-anchor="start" font-family="-apple-system, Segoe UI, Roboto, sans-serif" font-size="15" fill="#55605C">Fundo claro</text>
<clipPath id="c10"><rect width="1024" height="1024" rx="229"/></clipPath><g transform="translate(800,640) scale(0.29296875)" clip-path="url(#c10)"><rect width="1024" height="1024" fill="#FFFFFF"/><path d="M215,790 L215,560 L271,534.4 L271,678 L299,678 L299,790 Z M313,790 L313,678 L327,678 L327,508.8 L383,483.2 L383,678 L397,678 L397,790 Z M411,790 L411,678 L439,678 L439,457.6 L495,432 L495,790 Z" fill="#111111"/><path d="M509,790 L509,240 C679,359 809,430 809,530 C809,558 803,582 791,605 L757,587.5 C763,575 767,555 767,530 C767,460 679,426 565,349.2 L565,790 Z" fill="#111111"/><circle cx="683.0" cy="702" r="88" fill="#111111"/></g>
<text x="800" y="970" text-anchor="start" font-family="-apple-system, Segoe UI, Roboto, sans-serif" font-size="15" fill="#55605C">Uma cor só</text>
<rect x="1160" y="640" width="300" height="300" rx="24" fill="#123B40"/>
<g transform="translate(1235,720.5555555555555) scale(0.25252525252525254) translate(-215,-240)"><path d="M215,790 L215,560 L271,534.4 L271,678 L299,678 L299,790 Z M313,790 L313,678 L327,678 L327,508.8 L383,483.2 L383,678 L397,678 L397,790 Z M411,790 L411,678 L439,678 L439,457.6 L495,432 L495,790 Z" fill="#F4EFE3"/><path d="M509,790 L509,240 C679,359 809,430 809,530 C809,558 803,582 791,605 L757,587.5 C763,575 767,555 767,530 C767,460 679,426 565,349.2 L565,790 Z" fill="#F4EFE3"/><circle cx="683.0" cy="702" r="88" fill="#F2A03D"/></g>
<text x="1160" y="970" text-anchor="start" font-family="-apple-system, Segoe UI, Roboto, sans-serif" font-size="15" fill="#55605C">Símbolo sem fundo, na cor da barra lateral</text>
</svg>